<!-- icon666.com - MILLIONS vector ICONS FREE --><svg fill="none" viewBox="0 0 24 24" xmlns="http://www.w3.org/2000/svg"><g clip-rule="evenodd" fill="rgb(0,0,0)" fill-rule="evenodd"><path d="m12 2.75c-5.10863 0-9.25 4.14137-9.25 9.25 0 5.1086 4.14137 9.25 9.25 9.25 5.1086 0 9.25-4.1414 9.25-9.25 0-5.10863-4.1414-9.25-9.25-9.25zm-10.75 9.25c0-5.93706 4.81294-10.75 10.75-10.75 5.9371 0 10.75 4.81294 10.75 10.75 0 5.9371-4.8129 10.75-10.75 10.75-5.93706 0-10.75-4.8129-10.75-10.75z" fill="rgb(0,0,0)" style="fill: rgb(173, 173, 173);"></path><path d="m6.75 12c0-.4142.33579-.75.75-.75h9c.4142 0 .75.3358.75.75s-.3358.75-.75.75h-9c-.41421 0-.75-.3358-.75-.75z" fill="rgb(0,0,0)" style="fill: rgb(173, 173, 173);"></path><path d="m9.37512 7.45339c.35872-.20711.81738-.0842 1.02448.27452l4.5 7.79419c.2072.3587.0842.8174-.2745 1.0245s-.8174.0842-1.0245-.2745l-4.49999-7.79419c-.20711-.35872-.0842-.81741.27451-1.02452z" fill="rgb(0,0,0)" style="fill: rgb(173, 173, 173);"></path><path d="m14.6251 7.45339c.3587.20711.4817.6658.2745 1.02452l-4.5 7.79419c-.2071.3587-.66576.4816-1.02448.2745-.35871-.2071-.48162-.6658-.27451-1.0245l4.49999-7.79419c.2071-.35872.6658-.48163 1.0245-.27452z" fill="rgb(0,0,0)" style="fill: rgb(173, 173, 173);"></path></g></svg>