<svg width="24" height="25" viewBox="0 0 24 25" fill="none" xmlns="http://www.w3.org/2000/svg">
<g clip-path="url(#clip0_0_602)">
<path d="M15.402 21.7517V14.7857H17.735L18.084 12.0777H15.402V10.3497C15.402 9.56571 15.62 9.03071 16.744 9.03071H18.178V6.60871C17.4838 6.53505 16.7861 6.49933 16.088 6.50171C14.021 6.50171 12.606 7.76371 12.606 10.0817V12.0777H10.268V14.7857H12.606V21.7517H4C3.73478 21.7517 3.48043 21.6464 3.29289 21.4588C3.10536 21.2713 3 21.0169 3 20.7517V4.75171C3 4.48649 3.10536 4.23214 3.29289 4.0446C3.48043 3.85707 3.73478 3.75171 4 3.75171H20C20.2652 3.75171 20.5196 3.85707 20.7071 4.0446C20.8946 4.23214 21 4.48649 21 4.75171V20.7517C21 21.0169 20.8946 21.2713 20.7071 21.4588C20.5196 21.6464 20.2652 21.7517 20 21.7517H15.402Z" fill="#DEF6DA"/>
</g>
<defs>
<clipPath id="clip0_0_602">
<rect width="24" height="24" fill="white" transform="translate(0 0.751709)"/>
</clipPath>
</defs>
</svg>
