<svg width="18" height="19" viewBox="0 0 18 19" fill="none" xmlns="http://www.w3.org/2000/svg">
<path d="M15.335 16.0907H12.67V11.9137C12.67 10.9177 12.65 9.63571 11.28 9.63571C9.891 9.63571 9.679 10.7197 9.679 11.8407V16.0907H7.013V7.50171H9.573V8.67171H9.608C9.966 7.99771 10.836 7.28471 12.136 7.28471C14.836 7.28471 15.336 9.06271 15.336 11.3757V16.0907H15.335ZM4.003 6.32671C3.79956 6.32697 3.59806 6.28708 3.41006 6.20932C3.22207 6.13155 3.05127 6.01745 2.90746 5.87354C2.76365 5.72964 2.64965 5.55877 2.57201 5.37072C2.49437 5.18267 2.4546 4.98115 2.455 4.77771C2.4552 4.47154 2.54618 4.17231 2.71644 3.91786C2.8867 3.6634 3.12859 3.46514 3.41153 3.34816C3.69447 3.23118 4.00574 3.20073 4.30598 3.26065C4.60622 3.32057 4.88196 3.46818 5.09831 3.68482C5.31466 3.90145 5.46191 4.17737 5.52145 4.47769C5.58099 4.77801 5.55013 5.08924 5.43278 5.37203C5.31543 5.65481 5.11687 5.89645 4.86219 6.06638C4.60751 6.23631 4.30817 6.32691 4.002 6.32671H4.003ZM5.339 16.0907H2.666V7.50171H5.34V16.0907H5.339ZM16.67 0.751709H1.329C0.593 0.751709 0 1.33171 0 2.04871V17.4547C0 18.1717 0.594 18.7517 1.328 18.7517H16.666C17.4 18.7517 18 18.1717 18 17.4547V2.04871C18 1.33171 17.4 0.751709 16.666 0.751709H16.669H16.67Z" fill="#DEF6DA"/>
</svg>
