<svg width="98" height="20" viewBox="0 0 98 20" fill="none" xmlns="http://www.w3.org/2000/svg">
<path d="M6.29263 19.9046C4.99706 19.9046 3.79404 19.714 2.86863 19.5234C1.94323 19.3329 0.925286 18.9517 0.0924225 18.4753V14.1873H0.462583C1.38799 14.9496 2.31339 15.5213 3.33133 15.9978C4.44182 16.3789 5.36722 16.5695 6.38517 16.5695C6.66279 16.5695 6.94041 16.5695 7.40311 16.4742C7.77327 16.3789 8.14343 16.2837 8.42105 16.1884C8.79122 15.9978 8.9763 15.8072 9.16138 15.6166C9.439 15.3308 9.53154 15.0449 9.53154 14.6638C9.53154 14.2826 9.34646 13.8062 9.06884 13.5203C8.79122 13.2344 8.32851 13.0439 7.86581 12.9486C7.31057 12.758 6.66279 12.5674 6.015 12.5674C5.36722 12.3768 4.71944 12.1863 4.1642 12.091C2.86863 11.6145 1.85069 10.9475 1.29545 10.1852C0.740204 9.32763 0.370043 8.27946 0.370043 7.13601C0.370043 5.42082 1.01783 4.08679 2.40593 3.03863C3.79404 1.99046 5.55231 1.51401 7.58819 1.51401C8.69868 1.51401 9.62408 1.60931 10.642 1.89517C11.66 2.18104 12.4928 2.3716 13.3257 2.75275V6.85015H12.9555C12.3077 6.27842 11.5674 5.80198 10.5495 5.42082C9.62408 5.03967 8.69868 4.8491 7.68073 4.8491C7.31057 4.8491 6.94041 4.8491 6.66279 4.94438C6.29263 5.03967 6.01501 5.13496 5.64484 5.32554C5.36722 5.42083 5.18214 5.70669 4.90452 5.89726C4.71944 6.18313 4.53436 6.3737 4.53436 6.75486C4.53436 7.13601 4.71944 7.61244 4.99706 7.89831C5.27468 8.18417 5.92246 8.37475 6.84787 8.66061C7.40311 8.85119 7.95835 8.94648 8.5136 9.04177C9.06884 9.13706 9.62408 9.42292 10.2719 9.51821C11.4749 9.89936 12.3077 10.5664 12.9555 11.3287C13.5108 12.091 13.8809 13.1392 13.8809 14.2826C13.8809 16.0931 13.2332 17.5224 11.845 18.5706C10.4569 19.3329 8.60614 19.9046 6.29263 19.9046ZM28.1321 12.8533C28.1321 15.0449 27.5769 16.8554 26.3739 18.0941C25.2634 19.3329 23.5977 19.9999 21.3767 19.9999C19.2483 19.9999 17.5826 19.3329 16.4721 18.0941C15.3616 16.8554 14.6213 15.0449 14.6213 12.8533C14.6213 10.6617 15.1765 8.8512 16.4721 7.61245C17.5826 6.37371 19.3408 5.70669 21.3767 5.70669C23.5051 5.70669 25.1709 6.37371 26.3739 7.61245C27.5769 8.8512 28.1321 10.6617 28.1321 12.8533ZM23.9678 12.8533C23.9678 12.091 23.8753 11.424 23.7828 10.8522C23.5977 10.3758 23.4126 9.89936 23.3201 9.6135C23.0424 9.23235 22.8573 9.04176 22.4872 8.94647C22.117 8.7559 21.8394 8.75591 21.3767 8.75591C21.0065 8.75591 20.7289 8.85119 20.3588 8.94647C19.9886 9.04176 19.8035 9.32763 19.5259 9.6135C19.2483 9.89936 19.1557 10.3758 18.9707 10.8522C18.7856 11.3287 18.693 11.9957 18.693 12.8533C18.693 13.7109 18.7856 14.3779 18.8781 14.8543C19.0632 15.3308 19.2483 15.8072 19.3408 15.9978C19.6184 16.3789 19.8035 16.4742 20.1737 16.6648C20.5438 16.8554 20.8215 16.9507 21.2842 16.9507C21.6543 16.9507 21.9319 16.8554 22.3021 16.6648C22.6723 16.4742 22.8574 16.2837 23.135 15.9978C23.4126 15.7119 23.5051 15.2355 23.6902 14.7591C23.8753 14.3779 23.9678 13.7109 23.9678 12.8533ZM37.9414 4.08679H37.5713C37.3862 3.9915 37.2011 3.99151 36.8309 3.89622C36.4608 3.80093 36.1832 3.80093 35.9055 3.80093C35.0727 3.80093 34.5174 3.9915 34.2398 4.18208C33.8697 4.56323 33.8697 5.13496 33.8697 5.99255V6.08784H37.1086V9.04177H33.9622V19.5234H29.8904V9.04177H28.2247V6.08784H29.8904V5.70669C29.8904 4.08679 30.2606 2.84805 31.0934 1.99046C31.9263 1.13287 33.2219 0.751709 34.8876 0.751709C35.4428 0.751709 35.9981 0.751708 36.5533 0.846996C37.1086 0.942284 37.5713 0.942287 37.8489 1.03758C37.9414 0.942287 37.9414 4.08679 37.9414 4.08679ZM44.6043 19.8093C42.9386 19.8093 41.7356 19.4282 40.9953 18.7612C40.2549 18.0941 39.8848 16.8554 39.8848 15.3308V9.04177H38.4041V6.08784H39.9773V2.27632H44.0491V6.08784H48.0283V9.04177H44.0491V13.8062C44.0491 14.2826 44.0491 14.6638 44.0491 15.0449C44.0491 15.4261 44.1416 15.7119 44.2342 15.9978C44.3267 16.2837 44.6043 16.4742 44.7894 16.6648C45.067 16.8554 45.4372 16.9507 45.9924 16.9507C46.2701 16.9507 46.4551 16.8554 46.8253 16.7601C47.1955 16.6648 47.3805 16.5695 47.5656 16.4742H47.9358V19.4282C47.5656 19.5234 47.0104 19.714 46.5477 19.714C45.9924 19.8093 45.3447 19.8093 44.6043 19.8093ZM57.2824 19.9046C54.6912 19.9046 52.5628 19.047 51.0822 17.4271C49.509 15.8072 48.7687 13.5203 48.7687 10.5664C48.7687 7.80303 49.509 5.51612 51.0822 3.80093C52.6553 2.08575 54.6912 1.22815 57.2824 1.22815C57.9302 1.22815 58.5779 1.22815 59.1332 1.32344C59.6884 1.41872 60.2437 1.51402 60.7064 1.70459C61.0765 1.79988 61.5392 1.99045 62.0019 2.18103C62.4646 2.3716 62.8348 2.56218 63.1124 2.65747V6.85015H62.7422C62.4646 6.65957 62.2795 6.46899 61.9094 6.18313C61.5392 5.89727 61.2616 5.70669 60.7989 5.42082C60.3362 5.13496 59.966 4.94439 59.5033 4.75381C59.0406 4.56323 58.4854 4.46794 58.0227 4.46794C57.3749 4.46794 56.8197 4.56323 56.2644 4.8491C55.8017 5.03967 55.2465 5.42082 54.7838 5.99255C54.4136 6.3737 53.9509 7.136 53.6733 7.89831C53.3957 8.66061 53.3031 9.6135 53.3031 10.5664C53.3031 11.7098 53.4882 12.5674 53.6733 13.3297C54.0435 14.092 54.3211 14.6638 54.7838 15.2355C55.1539 15.6166 55.8017 15.9978 56.2644 16.1884C56.8197 16.3789 57.3749 16.5695 57.9301 16.5695C58.4854 16.5695 59.0406 16.4742 59.5959 16.2837C60.0586 16.0931 60.6138 15.9025 60.8914 15.6166C61.2616 15.3308 61.6318 15.1402 61.9094 14.8543C62.2795 14.5685 62.4646 14.3779 62.6497 14.1873H63.0199V18.2847C62.6497 18.4753 62.3721 18.6659 61.9094 18.7612C61.4467 18.8564 61.0765 19.1423 60.6138 19.2376C60.0586 19.4282 59.5033 19.5235 59.0406 19.6187C58.763 19.9046 58.1152 19.9046 57.2824 19.9046ZM69.5902 19.5234H65.5185V0.846996H69.5902V19.5234ZM83.4713 19.5234H79.3995V18.0941C78.6592 18.6659 78.1039 19.2376 77.4562 19.4282C76.9009 19.8093 76.1606 19.9046 75.3277 19.9046C74.0322 19.9046 73.0142 19.5234 72.2739 18.6659C71.5336 17.8083 71.1634 16.5695 71.1634 14.8543V5.99255H75.3277V12.6627C75.3277 13.3297 75.3277 13.9015 75.4203 14.3779C75.4203 14.759 75.5128 15.2355 75.6979 15.5213C75.7904 15.8072 76.0681 15.9978 76.2531 16.0931C76.5308 16.2837 76.9009 16.3789 77.3636 16.3789C77.7338 16.3789 78.0114 16.2837 78.3816 16.0931C78.7517 15.9025 79.1219 15.7119 79.4921 15.5213V5.99255H83.5638L83.4713 19.5234ZM93.7433 12.758C93.7433 11.424 93.5582 10.4711 93.188 9.89936C92.8179 9.32763 92.1701 9.04177 91.3372 9.04177C90.9671 9.04177 90.5969 9.13705 90.2267 9.23234C89.8566 9.32763 89.4864 9.6135 89.1162 9.70879V16.4742C89.3939 16.5695 89.6715 16.6648 89.9491 16.7601C90.2267 16.7601 90.5044 16.8554 90.782 16.8554C91.7999 16.8554 92.5402 16.4742 93.0029 15.8072C93.4656 15.0449 93.7433 13.9967 93.7433 12.758ZM97.9076 12.6627C97.9076 14.759 97.4449 16.5695 96.3344 17.8083C95.2239 19.1423 93.9283 19.714 92.3552 19.714C91.7074 19.714 91.1521 19.6187 90.5969 19.4282C90.1342 19.2376 89.579 19.047 89.0237 18.7612L88.8386 19.4282H84.9519V0.846996H89.0237V7.42187C89.579 6.94543 90.2267 6.46899 90.8745 6.18313C91.5223 5.80198 92.1701 5.70669 93.0029 5.70669C94.4836 5.70669 95.6866 6.27842 96.5195 7.61245C97.5374 8.75591 97.9076 10.4711 97.9076 12.6627Z" fill="#DEF6DA"/>
</svg>
