<svg width="46" height="27" viewBox="0 0 46 27" fill="none" xmlns="http://www.w3.org/2000/svg">
<path d="M44.9167 13.5C44.9167 16.7711 42.66 19.8974 38.6559 22.2561C34.6728 24.6025 29.1103 26.0833 22.9167 26.0833C16.7231 26.0833 11.1605 24.6025 7.17741 22.2561C3.17336 19.8974 0.916667 16.7711 0.916667 13.5C0.916667 10.2289 3.17336 7.10262 7.17741 4.74387C11.1605 2.39747 16.7231 0.916667 22.9167 0.916667C29.1103 0.916667 34.6728 2.39747 38.6559 4.74387C42.66 7.10262 44.9167 10.2289 44.9167 13.5Z" stroke="#DEF6DA" stroke-width="1.83333"/>
<path d="M37.5833 13.5C37.5833 20.3305 31.1447 26.0833 22.9166 26.0833C14.6886 26.0833 8.25001 20.3305 8.25001 13.5C8.25001 6.6695 14.6886 0.916667 22.9166 0.916667C31.1447 0.916667 37.5833 6.6695 37.5833 13.5Z" stroke="#DEF6DA" stroke-width="1.83333"/>
<path d="M30.2491 13.5C30.2491 17.0874 29.3586 20.2911 27.9672 22.5679C26.5662 24.8605 24.7538 26.0833 22.9158 26.0833C21.0778 26.0833 19.2653 24.8605 17.8643 22.5679C16.4729 20.2911 15.5824 17.0874 15.5824 13.5C15.5824 9.91264 16.4729 6.70892 17.8643 4.43205C19.2653 2.13946 21.0778 0.916667 22.9158 0.916667C24.7538 0.916667 26.5662 2.13946 27.9672 4.43205C29.3586 6.70892 30.2491 9.91264 30.2491 13.5Z" stroke="#DEF6DA" stroke-width="1.83333"/>
<rect x="22" y="0.899658" width="1.83328" height="25.2" fill="#DEF6DA"/>
<path d="M0.999908 12.1494C0.999908 12.1494 9.70825 14.8494 22.9999 14.8494C36.2916 14.8494 45 12.1494 45 12.1494" stroke="#DEF6DA" stroke-width="1.83333"/>
</svg>
